<svg width="19" height="15" viewBox="0 0 19 15" fill="none" xmlns="http://www.w3.org/2000/svg">
<path d="M17.1 0H1.9C0.855 0 0.00949999 0.84375 0.00949999 1.875L0 13.125C0 14.1563 0.855 15 1.9 15H17.1C18.145 15 19 14.1563 19 13.125V1.875C19 0.84375 18.145 0 17.1 0ZM16.72 3.98438L10.0035 8.12813C9.6995 8.31563 9.3005 8.31563 8.9965 8.12813L2.28 3.98438C2.18474 3.9316 2.10132 3.86031 2.03479 3.7748C1.96827 3.68929 1.92001 3.59135 1.89295 3.48691C1.86588 3.38247 1.86058 3.27369 1.87735 3.16716C1.89412 3.06064 1.93262 2.95858 1.99052 2.86716C2.04842 2.77574 2.12451 2.69686 2.21419 2.63531C2.30387 2.57375 2.40528 2.53079 2.51227 2.50903C2.61926 2.48727 2.72962 2.48716 2.83666 2.5087C2.9437 2.53025 3.04519 2.573 3.135 2.63437L9.5 6.5625L15.865 2.63437C15.9548 2.573 16.0563 2.53025 16.1633 2.5087C16.2704 2.48716 16.3807 2.48727 16.4877 2.50903C16.5947 2.53079 16.6961 2.57375 16.7858 2.63531C16.8755 2.69686 16.9516 2.77574 17.0095 2.86716C17.0674 2.95858 17.1059 3.06064 17.1227 3.16716C17.1394 3.27369 17.1341 3.38247 17.1071 3.48691C17.08 3.59135 17.0317 3.68929 16.9652 3.7748C16.8987 3.86031 16.8153 3.9316 16.72 3.98438Z" fill="#7BDC96"/>
</svg>
